<?xml version="1.0" encoding="utf-8"?>
<!-- Generator: Adobe Illustrator 16.0.0, SVG Export Plug-In . SVG Version: 6.00 Build 0)  -->
<!DOCTYPE svg PUBLIC "-//W3C//DTD SVG 1.1//EN" "http://www.w3.org/Graphics/SVG/1.1/DTD/svg11.dtd">
<svg version="1.1" id="Layer_1" xmlns="http://www.w3.org/2000/svg" xmlns:xlink="http://www.w3.org/1999/xlink" x="0px" y="0px"
	 width="256px" height="256px" viewBox="0 0 256 256" enable-background="new 0 0 256 256" xml:space="preserve">
<g>
	<polyline fill="#95CEB4" points="97.048,82.112 0.185,90.97 78.423,169.209 	"/>
	<polyline fill="#95CEB4" points="173.888,158.953 165.03,255.815 86.792,177.577 	"/>
	<path fill="#FFCC5C" d="M253.65,2.347c-16.713-3.005-34.36-2.865-52.062,0.339l51.726,51.724
		C256.519,36.71,256.654,19.06,253.65,2.347z"/>
	<path fill="#48707C" d="M201.589,2.686c-33.921,6.135-68.034,23.532-96.146,51.643c-26.75,26.749-43.797,58.939-50.669,91.232
		l55.666,55.665c32.286-6.873,64.479-23.921,91.234-50.675c28.111-28.111,45.504-62.222,51.641-96.141L201.589,2.686z"/>
	<path fill="#FF6E69" d="M59.898,176.49c-10.216,1.264-20.103,5.817-27.951,13.663c-12.542,12.543-16.672,30.312-12.409,46.311
		c15.999,4.265,33.769,0.137,46.316-12.407c7.846-7.846,12.396-17.736,13.658-27.949L59.898,176.49z"/>
	<path fill="#FFFFFF" d="M202.391,90.8c10.263-10.267,10.271-26.917-0.001-37.189c-10.272-10.272-26.929-10.27-37.192-0.005
		c-10.272,10.275-10.274,26.928-0.003,37.2C175.461,101.08,192.119,101.073,202.391,90.8z"/>
	<g opacity="0.15">
		<path d="M110.44,201.226l54.59,54.59l7.428-81.229c10.225-6.869,20.044-14.864,29.216-24.036
			c42.776-42.776,60.743-99.462,51.977-148.204L82.608,173.395l4.184,4.183L110.44,201.226z"/>
		<path d="M19.538,236.464c15.999,4.265,33.769,0.137,46.316-12.407c7.846-7.846,12.396-17.736,13.658-27.949l-9.81-9.813
			l-50.162,50.161C19.538,236.461,19.538,236.461,19.538,236.464z"/>
	</g>
</g>
</svg>
